<svg width="295" height="248" viewBox="0 0 295 248" fill="none" xmlns="http://www.w3.org/2000/svg">
<path d="M95.6848 90.0587C94.4844 89.9701 93.3096 89.8871 92.1042 89.8871H55.3958C25.1259 89.8871 0.5 114.488 0.5 144.722V189.538L0.557419 189.886L3.35546 190.768L95.6848 90.0587ZM95.6848 90.0587C96.243 104.185 102.228 116.933 111.659 126.256C84.7123 134.646 65.0973 159.774 65.0899 189.414V202.428C47.1256 201.337 26.4744 197.978 3.35689 190.768L95.6848 90.0587ZM219.988 235.219L219.987 235.219C218.586 235.931 195.065 247.5 154.447 247.5C133.652 247.5 108.377 244.473 79.2758 235.39L76.4784 234.515L76.4203 234.157V189.348C76.4203 159.11 101.046 134.505 131.316 134.505H168.028C198.298 134.505 222.924 159.11 222.913 189.347V233.741L222.878 233.759L219.988 235.219ZM203.664 89.8871H239.608C269.874 89.8871 294.5 114.488 294.5 144.722V189.123L294.465 189.141L291.577 190.603C290.264 191.261 269.8 201.324 234.24 202.715V189.414C234.24 159.774 214.617 134.639 187.678 126.256C197.149 116.893 203.153 104.087 203.664 89.8871ZM203.433 82.0132C201.608 65.2908 192.085 50.885 178.525 42.2933C179.029 19.1397 197.947 0.507241 221.248 0.5C244.869 0.5 264.013 19.6251 264.013 43.2206C264.013 66.8124 244.869 85.9376 221.248 85.9376C214.88 85.9376 208.866 84.5075 203.433 82.0132ZM192.441 87.8388C192.441 111.431 173.297 130.559 149.676 130.559C126.058 130.559 106.903 111.434 106.903 87.8425C106.903 64.2508 126.058 45.1218 149.676 45.1218C173.293 45.1218 192.441 64.247 192.441 87.8388ZM96.3098 79.471C89.756 83.5534 82.043 85.9449 73.7592 85.9449C50.1344 85.9449 30.994 66.8161 30.994 43.2317C30.994 19.6361 50.1345 0.511032 73.7592 0.511032C97.3692 0.511032 116.517 19.6361 116.517 43.2317C116.517 43.7855 116.481 44.3226 116.444 44.879C116.432 45.0517 116.42 45.2264 116.409 45.4039C105.874 53.6545 98.484 65.6957 96.3098 79.471Z" stroke="#C8C8C8"/>
</svg>
