<svg width="180" height="248" viewBox="0 0 180 248" fill="none" xmlns="http://www.w3.org/2000/svg">
<path d="M174.91 231.62L174.906 231.622C173.296 232.442 144.813 246.5 95.5573 246.5C70.3404 246.5 39.6744 242.822 4.35065 231.774C4.35037 231.774 4.35009 231.774 4.34981 231.774L1.5 230.88V176.479C1.5 140.097 31.0697 110.494 67.4098 110.494H112.084C148.424 110.494 177.993 140.097 177.98 176.479V176.479V230.066L174.91 231.62ZM140.9 52.6989C140.9 80.9773 118.001 103.902 89.7513 103.902C61.5058 103.902 38.594 80.9811 38.594 52.7034C38.594 24.4254 61.506 1.5 89.7513 1.5C117.996 1.5 140.9 24.4208 140.9 52.6989Z" stroke="#C8C8C8" stroke-width="3"/>
</svg>
